<?xml version="1.0" encoding="utf-8"?>
<!-- Generator: Adobe Illustrator 25.0.0, SVG Export Plug-In . SVG Version: 6.00 Build 0)  -->
<svg version="1.1" id="Layer_1" xmlns="http://www.w3.org/2000/svg" xmlns:xlink="http://www.w3.org/1999/xlink" x="0px" y="0px"
	 viewBox="0 0 1080 1080" style="enable-background:new 0 0 1080 1080;" xml:space="preserve">
<style type="text/css">
	.st0{fill:#FFFFFF;stroke:#000000;stroke-width:8;stroke-miterlimit:10;}
	.st1{fill:none;stroke:#FFFFFF;stroke-width:8;stroke-miterlimit:10;}
	.st2{stroke:#000000;stroke-width:8;stroke-miterlimit:10;}
</style>
<g>
	<path d="M987,471.6H82.6c-16.9,0-30.6,13.7-30.6,30.6v541.2c0,16.9,13.7,30.6,30.6,30.6H987c16.9,0,30.6-13.7,30.6-30.6V502.2
		C1017.6,485.3,1003.9,471.6,987,471.6z"/>
	<polygon class="st0" points="1074.3,139.6 1042.2,12.4 62,259.7 8.8,259.7 8.8,375 8.8,506.1 106.8,506.1 1062.3,506.1 1062.3,375 
		141.1,375 	"/>
	<g>
		<line class="st1" x1="165.9" y1="627.2" x2="916.8" y2="627.2"/>
		<line class="st1" x1="165.9" y1="731" x2="916.8" y2="731"/>
		<line class="st1" x1="165.9" y1="834.8" x2="916.8" y2="834.8"/>
		<line class="st1" x1="165.9" y1="938.5" x2="916.8" y2="938.5"/>
	</g>
	<g>
		<polygon class="st2" points="515.2,280.6 625.5,252.8 595.1,125.2 484.9,153 		"/>
		<polygon class="st2" points="291.1,337.1 401.3,309.3 371,181.7 260.8,209.5 		"/>
		<polygon class="st2" points="448.1,506.1 416.9,375 300.1,375 331.3,506.1 		"/>
		<polygon class="st2" points="819.3,68.7 709,96.5 739.4,224.1 849.6,196.3 		"/>
		<polygon class="st2" points="654.5,375 537.7,375 568.8,506.1 685.7,506.1 		"/>
		<polygon class="st2" points="892.1,375 775.2,375 806.4,506.1 923.2,506.1 		"/>
		<polygon class="st2" points="963.5,167.5 1074.3,139.6 1042.2,12.4 933.2,39.9 		"/>
		<polygon class="st2" points="1062.3,375 1012.8,375 1044,506.1 1062.3,506.1 		"/>
	</g>
	<polygon points="57,248.2 3,248.2 3,511.9 199,511.9 199,461.6 	"/>
</g>
<g>
</g>
<g>
</g>
<g>
</g>
<g>
</g>
<g>
</g>
<g>
</g>
<g>
</g>
<g>
</g>
<g>
</g>
<g>
</g>
<g>
</g>
<g>
</g>
<g>
</g>
<g>
</g>
<g>
</g>
</svg>
