<?xml version="1.0" encoding="utf-8"?>
<!-- Generator: Adobe Illustrator 25.0.0, SVG Export Plug-In . SVG Version: 6.00 Build 0)  -->
<svg version="1.1" id="Layer_1" xmlns="http://www.w3.org/2000/svg" xmlns:xlink="http://www.w3.org/1999/xlink" x="0px" y="0px"
	 viewBox="0 0 1080 1080" style="enable-background:new 0 0 1080 1080;" xml:space="preserve">
<style type="text/css">
	.st0{fill:#FFFFFF;}
	.st1{fill:none;stroke:#000000;stroke-width:2;stroke-miterlimit:10;}
</style>
<g>
	<path d="M985.5,926h-885c-4.1,0-7.5-3.4-7.5-7.5v-30c0-4.1,3.4-7.5,7.5-7.5h885c4.1,0,7.5,3.4,7.5,7.5v30
		C993,922.6,989.6,926,985.5,926z"/>
	<rect x="489" y="761" width="105" height="120"/>
	<path d="M1067.8,191H12.2C5.4,191,0,196.4,0,203.2v545.7c0,6.7,5.4,12.2,12.2,12.2h1055.7c6.7,0,12.2-5.4,12.2-12.2V203.2
		C1080,196.4,1074.6,191,1067.8,191z"/>
	<path class="st0" d="M1052.8,206H27.2c-6.7,0-12.2,5.4-12.2,12.2v515.7c0,6.7,5.4,12.2,12.2,12.2h1025.7c6.7,0,12.2-5.4,12.2-12.2
		V218.2C1065,211.4,1059.6,206,1052.8,206z"/>
	
		<image style="overflow:visible;" width="126" height="124" xlink:href="9BBB3052.jpg"  transform="matrix(2.9996 0 0 2.9996 342 278)">
	</image>
	<path class="st1" d="M696.9,449H563.1c-7.8,0-14.1-6.3-14.1-14.1V301.1c0-7.8,6.3-14.1,14.1-14.1h133.9c7.8,0,14.1,6.3,14.1,14.1
		v133.9C711,442.7,704.7,449,696.9,449z"/>
</g>
<g>
</g>
<g>
</g>
<g>
</g>
<g>
</g>
<g>
</g>
<g>
</g>
<g>
</g>
<g>
</g>
<g>
</g>
<g>
</g>
<g>
</g>
<g>
</g>
<g>
</g>
<g>
</g>
<g>
</g>
</svg>
